PathFileType	4	(X/Y/Z)	AB06\squats_1.trc
DataRate	CameraRate	NumFrames	NumMarkers	Units	OrigDataRate	OrigDataStartFrame	OrigNumFrames
200.000000	200.000000	4	35	mm	200.000000	343	392
Frame#	Time	C7			LSHO			LASI			RASI			LPSI			RPSI			LGTR			RGTR			LTHC			LTHL			LTHR			LKNE			LMKNE			LSHC			LSHL			LSHR			LANK			LMANK			LMT1			LMT5			LCAL			RTHC			RTHL			RTHR			RKNE			RMKNE			RSHC			RSHL			RSHR			RANK			RMANK			RMT1			RMT5			RCAL			STRN			
		X1	Y1	Z1	X2	Y2	Z2	X3	Y3	Z3	X4	Y4	Z4	X5	Y5	Z5	X6	Y6	Z6	X7	Y7	Z7	X8	Y8	Z8	X9	Y9	Z9	X10	Y10	Z10	X11	Y11	Z11	X12	Y12	Z12	X13	Y13	Z13	X14	Y14	Z14	X15	Y15	Z15	X16	Y16	Z16	X17	Y17	Z17	X18	Y18	Z18	X19	Y19	Z19	X20	Y20	Z20	X21	Y21	Z21	X22	Y22	Z22	X23	Y23	Z23	X24	Y24	Z24	X25	Y25	Z25	X26	Y26	Z26	X27	Y27	Z27	X28	Y28	Z28	X29	Y29	Z29	X30	Y30	Z30	X31	Y31	Z31	X32	Y32	Z32	X33	Y33	Z33	X34	Y34	Z34	X35	Y35	Z35	

344	46.62	-3555.105926815631	1520.010187533059	2485.789771582553	-3640.593771688565	1452.232164377513	2641.778123044328	-3486.607001333512	988.969206419568	2618.12308336666	-3488.836140441414	984.3459419851473	2365.245290291455	-3306.484623708121	1009.674248675948	2537.489436554601	-3308.693237845956	1012.834332483129	2439.328222549114	-3416.799452168083	931.6595675648234	2680.243015404377	-3436.579330686625	964.0937459154424	2317.468297590149	-3491.450357884796	822.1805035083999	2727.544434496175	-3616.572463943919	757.8726470090851	2686.093103777023	-3469.246097372098	652.8808491297353	2703.269574507012	-3651.775191053207	530.2023578704448	2790.083771533159	-3688.076796680789	509.6846204373928	2692.607404854205	-3547.123872547925	460.2420031244285	2774.986509655305	-3559.794328166633	223.8428595183699	2754.447363514421	-3469.487167999484	253.0520070820315	2716.270982573627	-3458.060046281916	105.8746958643717	2768.462768374178	-3491.79433665694	113.7913705033127	2685.921492131396	-3616.604367032934	50.31070566825453	2714.32270546485	-3566.782473890594	51.77314238571398	2828.178724267983	-3392.737171524139	78.91887716369418	2717.036135321634	-3501.500234075736	624.7308792591741	2295.016245244759	-3515.374474319391	770.1464131796804	2255.775506684278	-3628.260606192981	742.8896000252829	2356.154688842197	-3678.216859969081	523.748040853396	2232.453974449153	-3701.263259383613	508.1687435134664	2332.662588496058	-3495.813807636395	251.0330143197691	2285.488557414556	-3591.616745147862	455.2127592762068	2220.421637080732	-3589.315824190569	217.6063515890072	2262.615819110962	-3489.825488589889	110.2182137424041	2236.142526161283	-3524.296298329017	114.7447009494843	2320.603852129484	-3641.998495923174	52.23642754371842	2298.328257131296	-3608.287126333755	38.8655296217925	2180.25339582322	-3427.895238739073	79.10035836124834	2277.360724086026	-3646.765288990562	1232.563805535751	2493.102402870332	
345	46.625	-3554.110214345785	1524.139224468185	2485.951654809793	-3639.919139854235	1456.739414736099	2642.049593353527	-3488.808938821404	992.3445242449133	2618.315760275659	-3490.815162552226	987.6532031627943	2365.438265897889	-3308.590662209729	1012.822647814409	2537.79221710853	-3310.761778441314	1015.939668281625	2439.619919674805	-3419.030197884239	934.5733745747327	2680.310657629368	-3438.547994690565	966.9853118804642	2317.729901335127	-3493.150658623062	824.2412024635042	2727.611844953956	-3617.636802240875	758.8464556872088	2686.04155142525	-3469.321708171939	655.1743482667894	2702.848829698328	-3650.867261780747	530.8398376349186	2789.346072469049	-3686.915571639966	510.2266093202655	2692.050603424118	-3546.023764709102	460.7224388520679	2774.33553451422	-3559.405044694155	224.2342024002273	2754.318128410297	-3469.070301405724	253.1165687930202	2716.026812124411	-3458.050749489726	105.9252258079568	2768.545002019085	-3491.80029640786	113.8313091727227	2685.99738114652	-3616.627225822429	50.28902420944995	2714.343506892492	-3566.796932150598	51.73414695602255	2828.225934298205	-3392.754767305239	78.94334235203254	2717.033335800807	-3501.05723948702	626.7490676311689	2295.697020188725	-3516.258417940974	771.9844118582376	2256.176509438522	-3629.131873082672	743.9251919497173	2356.302704751494	-3676.928354420775	524.3670668497347	2232.984281037378	-3699.95260248449	508.7218174739749	2332.976929706063	-3495.279336942429	251.0558293569345	2285.673045577194	-3590.303696034411	455.7380780348611	2220.880734012786	-3588.873200846245	217.9720651377534	2262.665621396828	-3489.764331698619	110.260381452581	2236.080508818367	-3524.256511233538	114.7747265414808	2320.522204190591	-3642.014015007096	52.19385102845133	2298.32314716985	-3608.309221273588	38.80017639408481	2180.233908017753	-3427.90104613635	79.11287661173631	2277.290578174273	-3647.455126546548	1237.20648666485	2493.103036943121	
346	46.63	-3553.116740412419	1528.249156518439	2486.121459297804	-3639.252690250375	1461.235297461347	2642.328268434858	-3491.027705266486	995.7146761823626	2618.507410975472	-3492.797860074944	990.9561699349873	2365.627692099234	-3310.710072000584	1015.977323421832	2538.100317333022	-3312.842112942319	1019.04777351386	2439.918412650053	-3421.277757218073	937.4928932092821	2680.381981755309	-3440.516982396267	969.8758896520875	2317.99204059463	-3494.846939236273	826.2999673998987	2727.670886277519	-3618.681833549218	759.8162600821009	2685.97820543186	-3469.38207220606	657.4809867218115	2702.419374998226	-3649.925505167488	531.4851104431598	2788.591345051438	-3685.718980876301	510.7864490240402	2691.473140389235	-3544.892673675045	461.2103792566119	2773.675859748188	-3559.004907688376	224.6357942496208	2754.182807275316	-3468.638257482163	253.1834482383177	2715.784505908947	-3458.039465682153	105.9768122690638	2768.626705950816	-3491.803544230339	113.8701670418353	2686.070980688142	-3616.650750280709	50.26719465059567	2714.362735348318	-3566.81240685668	51.69547856334005	2828.271235800044	-3392.772641681719	78.97041314075383	2717.030122019022	-3500.583180518088	628.7814024777151	2296.390496062456	-3517.119840405805	773.8247762743955	2256.583388239629	-3629.973465503968	744.9580645405623	2356.454682674532	-3675.588486746371	524.9975332543218	2233.524704880732	-3698.594878130874	509.2885630783484	2333.303743369328	-3494.733484485308	251.0760535900835	2285.861444253215	-3588.948921579373	456.2711020103855	2221.349725985426	-3588.412864900601	218.3458607699455	2262.720349064194	-3489.699524510034	110.3040904007897	2236.019782822505	-3524.21555909888	114.8054210919722	2320.443530976909	-3642.030331880163	52.15470996500135	2298.31880318943	-3608.331189162282	38.73495100361433	2180.217024886023	-3427.90515662242	79.12806234582128	2277.223972931317	-3648.149318459868	1241.842813910047	2493.11603656285	
347	46.635	-3552.125654847382	1532.339361487116	2486.299153905021	-3638.5955570595	1465.720064851616	2642.61366090118	-3493.262210662971	999.0790843864557	2618.697881256255	-3494.784079585842	994.2548193059999	2365.813594686604	-3312.84279000138	1019.138446106543	2538.413829089727	-3314.933983517566	1022.15904335455	2440.223767188845	-3423.54182650033	940.4176865683713	2680.457092149403	-3442.485810299591	972.7658206417236	2318.254805843368	-3496.538863416416	828.3562403518023	2727.720859947026	-3619.706707618598	760.7814417469566	2685.901582265607	-3469.426903045366	659.8001567226055	2701.981425582821	-3648.949330505111	532.1377154470765	2787.819399435801	-3684.486184052121	511.3637334789713	2690.874545217657	-3543.7303989753	461.7052649843095	2773.008123014246	-3558.59404073321	225.0475218455805	2754.040571396521	-3468.19038767817	253.252612353254	2715.544495843228	-3458.025688660723	106.0296883968471	2768.707652325105	-3491.803960163425	113.9080096511608	2686.141976162196	-3616.674803163027	50.24528480770076	2714.380251800629	-3566.828892018774	51.65734205935317	2828.314243874883	-3392.790715560514	79.0004638986878	2717.027352498842	-3500.077578309957	630.8281821290516	2297.095986520939	-3517.958441641544	775.6681054873878	2256.996103723653	-3630.784463085388	745.9883738690697	2356.611304104009	-3674.196829484717	525.6396451362434	2234.07557917635	-3697.189990467426	509.8693236879894	2333.643675797396	-3494.176922065281	251.0937489959433	2286.052847892837	-3587.552262850131	456.8116029607352	2221.828696436117	-3587.934925767091	218.7280808511777	2262.780186911476	-3489.63157950269	110.3494358824483	2235.961019748614	-3524.17399186407	114.8372839427444	2320.367704006502	-3642.04768384216	52.11883144101284	2298.315325348281	-3608.353115515268	38.67022088285825	2180.20252991142	-3427.907621850393	79.14657849915565	2277.161258498142	-3648.847745541457	1246.472586098387	2493.141160687939	
